<svg width="26" height="24" viewBox="0 0 26 24" fill="none" xmlns="http://www.w3.org/2000/svg">
<g clip-path="url(#clip0_1_2107)">
<path opacity="0.3" d="M17.6189 5.36487C16.0148 5.36487 14.4523 6.31362 13.9106 7.62653H11.9627C11.4106 6.31362 9.84808 5.36487 8.24392 5.36487C6.16058 5.36487 4.59808 6.80237 4.59808 8.71903C4.59808 11.4886 7.86892 14.2199 12.8273 18.3503L12.9314 18.4461L13.0356 18.3503C17.9939 14.2199 21.2648 11.4886 21.2648 8.71903C21.2648 6.80237 19.7023 5.36487 17.6189 5.36487Z" fill="#F6F8FB"/>
<path d="M17.6189 3.44818C15.8064 3.44818 14.0668 4.22443 12.9314 5.4511C11.796 4.22443 10.0564 3.44818 8.24388 3.44818C5.03554 3.44818 2.51471 5.76735 2.51471 8.71901C2.51471 12.3415 6.05638 15.2932 11.421 19.7782L12.9314 21.0336L14.4418 19.7686C19.8064 15.2932 23.348 12.3415 23.348 8.71901C23.348 5.76735 20.8272 3.44818 17.6189 3.44818ZM13.0355 18.3503L12.9314 18.4461L12.8272 18.3503C7.86888 14.2198 4.59804 11.4886 4.59804 8.71901C4.59804 6.80235 6.16054 5.36485 8.24388 5.36485C9.84804 5.36485 11.4105 6.3136 11.9626 7.62651H13.9105C14.4522 6.3136 16.0147 5.36485 17.6189 5.36485C19.7022 5.36485 21.2647 6.80235 21.2647 8.71901C21.2647 11.4886 17.9939 14.2198 13.0355 18.3503Z" fill="#F6F8FB"/>
</g>
<defs>
<clipPath id="clip0_1_2107">
<rect width="25" height="23" fill="white" transform="translate(0.431396 0.573181)"/>
</clipPath>
</defs>
</svg>
