<svg width="25" height="25" viewBox="0 0 25 25" fill="none" xmlns="http://www.w3.org/2000/svg">
<g clip-path="url(#clip0_1_2239)">
<path d="M12.5 8.33329C13.6458 8.33329 14.5833 7.39579 14.5833 6.24996C14.5833 5.10413 13.6458 4.16663 12.5 4.16663C11.3542 4.16663 10.4167 5.10413 10.4167 6.24996C10.4167 7.39579 11.3542 8.33329 12.5 8.33329ZM12.5 10.4166C11.3542 10.4166 10.4167 11.3541 10.4167 12.5C10.4167 13.6458 11.3542 14.5833 12.5 14.5833C13.6458 14.5833 14.5833 13.6458 14.5833 12.5C14.5833 11.3541 13.6458 10.4166 12.5 10.4166ZM12.5 16.6666C11.3542 16.6666 10.4167 17.6041 10.4167 18.75C10.4167 19.8958 11.3542 20.8333 12.5 20.8333C13.6458 20.8333 14.5833 19.8958 14.5833 18.75C14.5833 17.6041 13.6458 16.6666 12.5 16.6666Z" fill="#DCCEFA"/>
</g>
<defs>
<clipPath id="clip0_1_2239">
<rect width="25" height="25" fill="white"/>
</clipPath>
</defs>
</svg>
