<svg width="17" height="14" viewBox="0 0 17 14" fill="none" xmlns="http://www.w3.org/2000/svg">
<path d="M14.875 0.625H2.12498C1.41665 0.625 0.708313 1.33333 0.708313 2.04167V11.9583C0.708313 12.7375 1.34581 13.375 2.12498 13.375H14.875C15.5833 13.375 16.2916 12.6667 16.2916 11.9583V2.04167C16.2916 1.33333 15.5833 0.625 14.875 0.625ZM14.875 11.9017C14.8608 11.9229 14.8325 11.9442 14.8183 11.9583H2.12498V2.09833L2.18165 2.04167H14.8112C14.8325 2.05583 14.8537 2.08417 14.8679 2.09833V11.9017H14.875ZM7.79165 9.48625L6.02081 7.35417L3.54165 10.5417H13.4583L10.2708 6.29167L7.79165 9.48625Z" fill="#F586E6"/>
</svg>
