<svg width="23" height="24" viewBox="0 0 23 24" fill="none" xmlns="http://www.w3.org/2000/svg">
<g clip-path="url(#clip0_1_2064)">
<path opacity="0.3" d="M17.1572 6.32316C17.6676 6.32316 18.0813 5.8941 18.0813 5.36483C18.0813 4.83555 17.6676 4.40649 17.1572 4.40649C16.6469 4.40649 16.2331 4.83555 16.2331 5.36483C16.2331 5.8941 16.6469 6.32316 17.1572 6.32316Z" fill="#F6F8FB"/>
<path opacity="0.3" d="M6.06794 13.0315C6.57831 13.0315 6.99204 12.6025 6.99204 12.0732C6.99204 11.5439 6.57831 11.1149 6.06794 11.1149C5.55757 11.1149 5.14383 11.5439 5.14383 12.0732C5.14383 12.6025 5.55757 13.0315 6.06794 13.0315Z" fill="#F6F8FB"/>
<path opacity="0.3" d="M17.1572 19.759C17.6676 19.759 18.0813 19.33 18.0813 18.8007C18.0813 18.2714 17.6676 17.8423 17.1572 17.8423C16.6469 17.8423 16.2331 18.2714 16.2331 18.8007C16.2331 19.33 16.6469 19.759 17.1572 19.759Z" fill="#F6F8FB"/>
<path d="M17.1572 15.9832C16.4549 15.9832 15.8265 16.2707 15.346 16.7211L8.7571 12.744C8.8033 12.5236 8.84027 12.3032 8.84027 12.0732C8.84027 11.8432 8.8033 11.6228 8.7571 11.4024L15.2721 7.46362C15.7711 7.94278 16.4272 8.23987 17.1572 8.23987C18.6913 8.23987 19.9296 6.9557 19.9296 5.36487C19.9296 3.77403 18.6913 2.48987 17.1572 2.48987C15.6232 2.48987 14.3849 3.77403 14.3849 5.36487C14.3849 5.59487 14.4219 5.81528 14.4681 6.0357L7.95312 9.97445C7.45411 9.49529 6.79799 9.1982 6.06795 9.1982C4.53393 9.1982 3.29562 10.4824 3.29562 12.0732C3.29562 13.664 4.53393 14.9482 6.06795 14.9482C6.79799 14.9482 7.45411 14.6511 7.95312 14.172L14.5328 18.1586C14.4866 18.3599 14.4588 18.5707 14.4588 18.7815C14.4588 20.3245 15.6694 21.5799 17.1572 21.5799C18.645 21.5799 19.8556 20.3245 19.8556 18.7815C19.8556 17.2386 18.645 15.9832 17.1572 15.9832ZM17.1572 4.40653C17.6655 4.40653 18.0813 4.83778 18.0813 5.36487C18.0813 5.89195 17.6655 6.3232 17.1572 6.3232C16.649 6.3232 16.2331 5.89195 16.2331 5.36487C16.2331 4.83778 16.649 4.40653 17.1572 4.40653ZM6.06795 13.0315C5.55969 13.0315 5.14384 12.6003 5.14384 12.0732C5.14384 11.5461 5.55969 11.1149 6.06795 11.1149C6.5762 11.1149 6.99205 11.5461 6.99205 12.0732C6.99205 12.6003 6.5762 13.0315 6.06795 13.0315ZM17.1572 19.759C16.649 19.759 16.2331 19.3278 16.2331 18.8007C16.2331 18.2736 16.649 17.8424 17.1572 17.8424C17.6655 17.8424 18.0813 18.2736 18.0813 18.8007C18.0813 19.3278 17.6655 19.759 17.1572 19.759Z" fill="#F6F8FB"/>
</g>
<defs>
<clipPath id="clip0_1_2064">
<rect width="22.1786" height="23" fill="white" transform="translate(0.523285 0.573181)"/>
</clipPath>
</defs>
</svg>
